<?xml version="1.0" standalone="no"?>
<!DOCTYPE svg PUBLIC "-//W3C//DTD SVG 20010904//EN"
 "http://www.w3.org/TR/2001/REC-SVG-20010904/DTD/svg10.dtd">
<svg version="1.0" xmlns="http://www.w3.org/2000/svg"
 width="256.000000pt" height="256.000000pt" viewBox="0 0 256.000000 256.000000"
 preserveAspectRatio="xMidYMid meet">

<g transform="translate(0.000000,256.000000) scale(0.100000,-0.100000)"
fill="#000000" stroke="none">
<path d="M1193 2546 c-128 -42 -256 -192 -333 -389 l-32 -83 -86 14 c-118 18
-277 10 -363 -18 -127 -42 -209 -130 -230 -245 -21 -121 38 -288 160 -449 l59
-79 -62 -78 c-359 -454 -165 -812 399 -739 44 6 88 12 99 13 14 2 26 -17 57
-91 74 -181 188 -325 296 -375 67 -30 179 -30 246 0 108 50 222 194 296 375
31 74 43 93 57 91 11 -1 55 -7 99 -13 334 -43 555 65 581 283 3 29 1 80 -5
112 -17 85 -100 246 -175 341 l-64 81 59 79 c76 100 135 221 155 315 37 178
-47 320 -225 379 -86 28 -245 36 -363 18 l-86 -14 -32 83 c-67 171 -191 328
-297 375 -58 26 -154 32 -210 14z m156 -156 c60 -30 128 -114 183 -227 28 -57
48 -109 45 -116 -2 -7 -31 -21 -63 -31 -33 -10 -98 -34 -146 -53 l-88 -34 -87
34 c-49 19 -114 43 -147 53 -32 10 -61 24 -63 31 -9 23 93 216 143 272 79 88
147 110 223 71z m-591 -456 c21 -6 23 -11 17 -43 -4 -20 -17 -90 -29 -157
l-21 -121 -100 -80 c-55 -44 -109 -90 -119 -102 -11 -11 -23 -21 -28 -21 -15
0 -100 124 -138 203 -50 101 -58 161 -32 220 38 85 136 120 317 112 61 -3 121
-8 133 -11z m1328 5 c128 -23 193 -96 179 -200 -9 -61 -68 -185 -129 -266 -25
-35 -48 -63 -51 -63 -3 0 -42 32 -88 71 -45 39 -101 85 -124 102 -24 17 -43
38 -43 48 0 10 -11 79 -25 155 -14 75 -24 139 -21 141 19 20 218 27 302 12z
m-1085 -65 c97 -29 99 -32 38 -65 -29 -16 -73 -41 -97 -55 l-45 -27 7 44 c10
66 26 119 35 119 4 0 32 -7 62 -16z m638 -21 c6 -21 13 -58 17 -82 l7 -45 -39
25 c-21 13 -65 38 -98 55 -65 35 -64 37 23 65 77 25 79 24 90 -18z m-249 -144
c54 -28 142 -79 196 -113 l99 -61 7 -50 c8 -67 9 -350 0 -399 -7 -36 -14 -43
-116 -106 -60 -38 -151 -90 -202 -117 l-94 -48 -94 48 c-51 27 -142 79 -202
117 -102 63 -109 70 -116 106 -9 49 -8 332 0 399 l7 50 92 57 c111 70 293 168
312 168 7 0 57 -23 111 -51z m-682 -469 l-3 -60 -64 57 -64 57 64 58 64 57 3
-54 c2 -30 2 -81 0 -115z m1267 61 c4 -7 -27 -39 -97 -100 l-28 -24 0 117 0
118 60 -52 c33 -29 62 -55 65 -59z m-1459 -152 c16 -17 71 -65 122 -106 75
-61 92 -80 92 -102 0 -25 34 -226 46 -277 5 -20 0 -23 -82 -34 -232 -33 -398
21 -420 136 -9 49 11 134 50 209 40 75 135 205 151 205 6 0 24 -14 41 -31z
m1634 -40 c100 -135 151 -263 136 -343 -16 -84 -105 -136 -246 -144 -71 -4
-246 10 -256 21 -2 1 8 61 21 132 14 72 25 144 25 161 0 27 12 41 93 107 50
41 105 89 121 106 17 17 35 31 41 31 6 0 35 -32 65 -71z m-1128 -327 c38 -20
68 -40 68 -44 0 -9 -151 -59 -160 -53 -4 3 -13 35 -20 72 -6 38 -14 77 -17 87
-5 18 -4 18 28 -2 19 -13 64 -39 101 -60z m632 -7 c-9 -44 -19 -83 -23 -87 -8
-9 -161 40 -161 52 0 4 12 13 28 19 15 7 59 31 97 55 39 24 71 43 72 42 1 -1
-5 -37 -13 -81z m-292 -159 c46 -19 116 -44 156 -57 85 -27 84 -15 10 -168
-59 -124 -137 -212 -205 -232 -102 -30 -205 53 -291 232 -75 154 -77 140 25
173 48 16 116 41 152 57 37 16 67 28 68 29 2 0 40 -15 85 -34z"/>
<path d="M1195 1496 c-54 -20 -120 -92 -135 -147 -28 -103 9 -200 99 -264 39
-27 50 -30 121 -30 71 0 82 3 121 30 24 17 57 50 74 74 27 39 30 50 30 121 0
71 -3 82 -30 121 -49 69 -101 100 -176 105 -41 3 -78 -1 -104 -10z"/>
</g>
</svg>
